<svg xmlns="http://www.w3.org/2000/svg" xmlns:xlink="http://www.w3.org/1999/xlink" width="160" zoomAndPan="magnify" viewBox="0 0 120 30.000001" height="40" preserveAspectRatio="xMidYMid meet" version="1.0"><defs><g/><clipPath id="0731e1f14d"><path d="M 6 3 L 23 3 L 23 27 L 6 27 Z M 6 3 " clip-rule="nonzero"/></clipPath><clipPath id="b62b1f3725"><path d="M 9.113281 2.613281 L 24.207031 4.753906 L 21.148438 26.3125 L 6.058594 24.171875 Z M 9.113281 2.613281 " clip-rule="nonzero"/></clipPath><clipPath id="bd5c4fd6fb"><path d="M 9.113281 2.613281 L 24.207031 4.753906 L 21.148438 26.3125 L 6.058594 24.171875 Z M 9.113281 2.613281 " clip-rule="nonzero"/></clipPath><clipPath id="57e6c76e3f"><path d="M 8 12 L 20 12 L 20 21 L 8 21 Z M 8 12 " clip-rule="nonzero"/></clipPath><clipPath id="512d8f6205"><path d="M 9.816406 12.242188 L 20.597656 13.769531 L 19.578125 20.953125 L 8.800781 19.425781 Z M 9.816406 12.242188 " clip-rule="nonzero"/></clipPath><clipPath id="de667d50a7"><path d="M 9.816406 12.242188 L 20.597656 13.769531 L 19.578125 20.953125 L 8.800781 19.425781 Z M 9.816406 12.242188 " clip-rule="nonzero"/></clipPath><clipPath id="8199748f71"><path d="M 26.539062 2.902344 L 112.910156 2.902344 L 112.910156 26.128906 L 26.539062 26.128906 Z M 26.539062 2.902344 " clip-rule="nonzero"/></clipPath><clipPath id="475e1b1ed9"><path d="M 0.539062 0.902344 L 86.910156 0.902344 L 86.910156 24.128906 L 0.539062 24.128906 Z M 0.539062 0.902344 " clip-rule="nonzero"/></clipPath><clipPath id="fbe54a3b23"><rect x="0" width="87" y="0" height="25"/></clipPath></defs><g clip-path="url(#0731e1f14d)"><g clip-path="url(#b62b1f3725)"><g clip-path="url(#bd5c4fd6fb)"><path fill="#ed0404" d="M 22.4375 10.148438 L 19.414062 9.722656 L 19.71875 7.554688 C 19.730469 7.476562 19.945312 6.152344 19.167969 5.058594 C 18.628906 4.371094 17.789062 3.90625 16.667969 3.746094 C 15.546875 3.585938 14.617188 3.773438 13.898438 4.335938 C 12.847656 5.171875 12.664062 6.476562 12.675781 6.585938 L 12.367188 8.75 L 9.34375 8.320312 L 6.054688 24.214844 L 21.179688 26.355469 Z M 12.632812 8.761719 L 12.941406 6.570312 C 12.964844 6.414062 13.15625 5.242188 14.078125 4.550781 C 14.710938 4.054688 15.585938 3.859375 16.632812 4.007812 C 17.675781 4.15625 18.46875 4.558594 18.929688 5.238281 C 19.621094 6.1875 19.484375 7.335938 19.460938 7.492188 L 19.152344 9.683594 L 15.890625 9.222656 C 15.890625 9.222656 12.632812 8.761719 12.632812 8.761719 Z M 12.632812 8.761719 " fill-opacity="1" fill-rule="nonzero"/></g></g></g><g clip-path="url(#57e6c76e3f)"><g clip-path="url(#512d8f6205)"><g clip-path="url(#de667d50a7)"><path fill="#ffffff" d="M 8.851562 19.058594 C 8.855469 19.035156 8.867188 19.015625 8.882812 19 L 10.46875 17.5625 C 10.484375 17.546875 10.503906 17.539062 10.523438 17.539062 C 10.480469 17.457031 10.464844 17.359375 10.476562 17.261719 L 11.097656 12.890625 C 11.132812 12.636719 11.363281 12.464844 11.617188 12.5 L 19.09375 13.558594 C 19.34375 13.59375 19.519531 13.828125 19.484375 14.078125 L 18.863281 18.449219 C 18.851562 18.546875 18.804688 18.636719 18.742188 18.703125 C 18.761719 18.710938 18.777344 18.722656 18.789062 18.742188 L 19.910156 20.5625 C 19.921875 20.582031 19.929688 20.605469 19.925781 20.628906 L 19.890625 20.878906 C 19.859375 21.101562 19.652344 21.257812 19.425781 21.226562 L 9.164062 19.773438 C 8.941406 19.742188 8.785156 19.53125 8.816406 19.308594 Z M 12.476562 19.476562 L 16.328125 20.019531 L 16.144531 19.671875 L 12.75 19.191406 Z M 10.867188 17.78125 L 10.566406 17.738281 L 9.167969 19.003906 L 12.238281 19.441406 L 12.644531 19.019531 C 12.667969 19 12.699219 18.988281 12.726562 18.992188 L 16.21875 19.488281 C 16.25 19.492188 16.277344 19.511719 16.292969 19.539062 L 16.566406 20.054688 L 19.636719 20.488281 L 18.648438 18.882812 Z M 18.371094 18.648438 C 18.515625 18.667969 18.652344 18.566406 18.671875 18.421875 L 19.292969 14.050781 C 19.3125 13.90625 19.210938 13.769531 19.066406 13.75 L 11.589844 12.691406 C 11.445312 12.671875 11.308594 12.769531 11.289062 12.917969 L 10.667969 17.289062 C 10.648438 17.433594 10.75 17.566406 10.894531 17.585938 Z M 19.070312 14.328125 L 18.539062 18.09375 C 18.507812 18.316406 18.300781 18.472656 18.074219 18.4375 L 11.238281 17.46875 C 11.011719 17.4375 10.859375 17.230469 10.890625 17.007812 L 11.421875 13.246094 C 11.453125 13.023438 11.660156 12.867188 11.882812 12.898438 L 18.722656 13.867188 C 18.949219 13.898438 19.101562 14.105469 19.070312 14.328125 Z M 18.878906 14.304688 C 18.894531 14.183594 18.8125 14.078125 18.695312 14.058594 L 11.855469 13.089844 C 11.738281 13.074219 11.632812 13.15625 11.613281 13.273438 L 11.082031 17.035156 C 11.066406 17.152344 11.148438 17.261719 11.265625 17.277344 L 18.101562 18.246094 C 18.21875 18.265625 18.328125 18.183594 18.347656 18.066406 Z M 19.71875 20.695312 L 9.03125 19.183594 L 9.007812 19.335938 C 8.992188 19.453125 9.074219 19.5625 9.191406 19.578125 L 19.453125 21.035156 C 19.570312 21.050781 19.679688 20.96875 19.695312 20.851562 Z M 19.71875 20.695312 " fill-opacity="1" fill-rule="evenodd"/></g></g></g><g clip-path="url(#8199748f71)"><g transform="matrix(1, 0, 0, 1, 26, 2)"><g clip-path="url(#fbe54a3b23)"><g clip-path="url(#475e1b1ed9)"><path fill="#ed0404" d="M 0.539062 0.902344 L 86.910156 0.902344 L 86.910156 24.128906 L 0.539062 24.128906 Z M 0.539062 0.902344 " fill-opacity="1" fill-rule="nonzero"/></g></g></g></g><g fill="#ffffff" fill-opacity="1"><g transform="translate(28.320816, 18.942103)"><g><path d="M 0.703125 -9.578125 L 4.1875 -9.578125 C 5.164062 -9.578125 5.957031 -9.320312 6.5625 -8.8125 C 7.164062 -8.3125 7.46875 -7.582031 7.46875 -6.625 C 7.46875 -5.664062 7.160156 -4.910156 6.546875 -4.359375 C 5.929688 -3.816406 5.144531 -3.546875 4.1875 -3.546875 L 2.875 -3.546875 L 2.875 0 L 0.703125 0 Z M 2.875 -5.296875 L 3.5 -5.296875 C 3.976562 -5.296875 4.375 -5.394531 4.6875 -5.59375 C 5.007812 -5.789062 5.171875 -6.113281 5.171875 -6.5625 C 5.171875 -7.019531 5.007812 -7.347656 4.6875 -7.546875 C 4.375 -7.742188 3.976562 -7.84375 3.5 -7.84375 L 2.875 -7.84375 Z M 2.875 -5.296875 "/></g></g></g><g fill="#ffffff" fill-opacity="1"><g transform="translate(36.047417, 18.942103)"><g><path d="M 2.875 -9.578125 L 2.875 0 L 0.703125 0 L 0.703125 -9.578125 Z M 2.875 -9.578125 "/></g></g></g><g fill="#ffffff" fill-opacity="1"><g transform="translate(39.2493, 18.942103)"><g><path d="M 5.796875 -1.96875 C 6.128906 -1.96875 6.453125 -2.019531 6.765625 -2.125 C 7.078125 -2.226562 7.304688 -2.328125 7.453125 -2.421875 L 7.671875 -2.5625 L 8.609375 -0.703125 C 8.578125 -0.679688 8.53125 -0.648438 8.46875 -0.609375 C 8.414062 -0.578125 8.289062 -0.507812 8.09375 -0.40625 C 7.894531 -0.300781 7.679688 -0.207031 7.453125 -0.125 C 7.234375 -0.0507812 6.941406 0.015625 6.578125 0.078125 C 6.210938 0.140625 5.835938 0.171875 5.453125 0.171875 C 4.566406 0.171875 3.722656 -0.046875 2.921875 -0.484375 C 2.128906 -0.921875 1.488281 -1.519531 1 -2.28125 C 0.507812 -3.050781 0.265625 -3.878906 0.265625 -4.765625 C 0.265625 -5.441406 0.40625 -6.085938 0.6875 -6.703125 C 0.976562 -7.328125 1.359375 -7.859375 1.828125 -8.296875 C 2.304688 -8.742188 2.863281 -9.097656 3.5 -9.359375 C 4.132812 -9.617188 4.785156 -9.75 5.453125 -9.75 C 6.078125 -9.75 6.648438 -9.675781 7.171875 -9.53125 C 7.691406 -9.382812 8.0625 -9.238281 8.28125 -9.09375 L 8.609375 -8.875 L 7.671875 -7.015625 C 7.617188 -7.054688 7.535156 -7.109375 7.421875 -7.171875 C 7.316406 -7.242188 7.101562 -7.332031 6.78125 -7.4375 C 6.457031 -7.550781 6.128906 -7.609375 5.796875 -7.609375 C 5.265625 -7.609375 4.789062 -7.519531 4.375 -7.34375 C 3.957031 -7.175781 3.625 -6.953125 3.375 -6.671875 C 3.132812 -6.390625 2.953125 -6.085938 2.828125 -5.765625 C 2.703125 -5.453125 2.640625 -5.128906 2.640625 -4.796875 C 2.640625 -4.066406 2.910156 -3.410156 3.453125 -2.828125 C 3.992188 -2.253906 4.773438 -1.96875 5.796875 -1.96875 Z M 5.796875 -1.96875 "/></g></g></g><g fill="#ffffff" fill-opacity="1"><g transform="translate(47.985236, 18.942103)"><g><path d="M 9.421875 0 L 6.40625 0 L 2.875 -4.0625 L 2.875 0 L 0.703125 0 L 0.703125 -9.578125 L 2.875 -9.578125 L 2.875 -5.671875 L 6.171875 -9.578125 L 8.8125 -9.578125 L 4.953125 -5.03125 Z M 9.421875 0 "/></g></g></g><g fill="#ffffff" fill-opacity="1"><g transform="translate(56.071107, 18.942103)"><g><path d="M -0.34375 -9.578125 L 2.28125 -9.578125 L 4.265625 -6.515625 L 6.265625 -9.578125 L 8.890625 -9.578125 L 5.359375 -4.296875 L 5.359375 0 L 3.1875 0 L 3.1875 -4.296875 Z M -0.34375 -9.578125 "/></g></g></g><g fill="#ffffff" fill-opacity="1"><g transform="translate(64.609821, 18.942103)"><g/></g></g><g fill="#ffffff" fill-opacity="1"><g transform="translate(67.777028, 18.942103)"><g><path d="M 6.234375 -9.578125 L 6.234375 -7.65625 L 2.875 -7.65625 L 2.875 -5.765625 L 5.984375 -5.765625 L 5.984375 -3.84375 L 2.875 -3.84375 L 2.875 0 L 0.703125 0 L 0.703125 -9.578125 Z M 6.234375 -9.578125 "/></g></g></g><g fill="#ffffff" fill-opacity="1"><g transform="translate(74.355081, 18.942103)"><g><path d="M 2.875 -9.578125 L 2.875 0 L 0.703125 0 L 0.703125 -9.578125 Z M 2.875 -9.578125 "/></g></g></g><g fill="#ffffff" fill-opacity="1"><g transform="translate(77.92834, 18.942103)"><g><path d="M 2.875 -5.9375 L 2.875 0 L 0.703125 0 L 0.703125 -9.578125 L 2.875 -9.578125 L 6.6875 -3.640625 L 6.703125 -3.640625 L 6.703125 -9.578125 L 8.890625 -9.578125 L 8.890625 0 L 6.703125 0 L 2.90625 -5.9375 Z M 2.875 -5.9375 "/></g></g></g><g fill="#ffffff" fill-opacity="1"><g transform="translate(87.511187, 18.942103)"><g><path d="M 0.703125 -9.578125 L 3.46875 -9.578125 C 4.800781 -9.578125 5.9375 -9.117188 6.875 -8.203125 C 7.820312 -7.296875 8.296875 -6.160156 8.296875 -4.796875 C 8.296875 -3.421875 7.828125 -2.273438 6.890625 -1.359375 C 5.953125 -0.453125 4.8125 0 3.46875 0 L 0.703125 0 Z M 2.875 -1.953125 L 3.21875 -1.953125 C 4.007812 -1.953125 4.660156 -2.21875 5.171875 -2.75 C 5.679688 -3.289062 5.9375 -3.96875 5.9375 -4.78125 C 5.9375 -5.59375 5.679688 -6.269531 5.171875 -6.8125 C 4.671875 -7.351562 4.019531 -7.625 3.21875 -7.625 L 2.875 -7.625 Z M 2.875 -1.953125 "/></g></g></g><g fill="#ffffff" fill-opacity="1"><g transform="translate(96.073102, 18.942103)"><g><path d="M 6.171875 -9.578125 L 6.171875 -7.65625 L 2.875 -7.65625 L 2.875 -5.765625 L 6.03125 -5.765625 L 6.03125 -3.84375 L 2.875 -3.84375 L 2.875 -1.921875 L 6.171875 -1.921875 L 6.171875 0 L 0.703125 0 L 0.703125 -9.578125 Z M 6.171875 -9.578125 "/></g></g></g><g fill="#ffffff" fill-opacity="1"><g transform="translate(102.801974, 18.942103)"><g><path d="M 0.703125 -9.578125 L 4.125 -9.578125 C 5.039062 -9.578125 5.789062 -9.332031 6.375 -8.84375 C 6.957031 -8.351562 7.25 -7.648438 7.25 -6.734375 C 7.25 -6.023438 7.070312 -5.429688 6.71875 -4.953125 C 6.363281 -4.484375 5.882812 -4.148438 5.28125 -3.953125 L 8.578125 0 L 5.796875 0 L 2.875 -3.78125 L 2.875 0 L 0.703125 0 Z M 2.875 -5.328125 L 3.140625 -5.328125 C 3.335938 -5.328125 3.503906 -5.332031 3.640625 -5.34375 C 3.785156 -5.351562 3.945312 -5.378906 4.125 -5.421875 C 4.300781 -5.460938 4.441406 -5.523438 4.546875 -5.609375 C 4.660156 -5.703125 4.753906 -5.828125 4.828125 -5.984375 C 4.910156 -6.148438 4.953125 -6.347656 4.953125 -6.578125 C 4.953125 -6.816406 4.910156 -7.015625 4.828125 -7.171875 C 4.753906 -7.335938 4.660156 -7.460938 4.546875 -7.546875 C 4.441406 -7.628906 4.300781 -7.691406 4.125 -7.734375 C 3.945312 -7.785156 3.785156 -7.816406 3.640625 -7.828125 C 3.503906 -7.835938 3.335938 -7.84375 3.140625 -7.84375 L 2.875 -7.84375 Z M 2.875 -5.328125 "/></g></g></g></svg>