<svg xmlns="http://www.w3.org/2000/svg" xmlns:xlink="http://www.w3.org/1999/xlink" width="48" zoomAndPan="magnify" viewBox="0 0 36 36.000001" height="48" preserveAspectRatio="xMidYMid meet" version="1.0"><defs><clipPath id="606ec54938"><path d="M 5 1 L 29 1 L 29 34 L 5 34 Z M 5 1 " clip-rule="nonzero"/></clipPath><clipPath id="c34b0473c6"><path d="M 9.378906 0 L 31.054688 3.070312 L 26.652344 34.140625 L 4.976562 31.070312 Z M 9.378906 0 " clip-rule="nonzero"/></clipPath><clipPath id="df9a3ca86b"><path d="M 9.378906 0 L 31.054688 3.070312 L 26.652344 34.140625 L 4.976562 31.070312 Z M 9.378906 0 " clip-rule="nonzero"/></clipPath><clipPath id="e784457b88"><path d="M 8 14 L 25 14 L 25 27 L 8 27 Z M 8 14 " clip-rule="nonzero"/></clipPath><clipPath id="e4815bd247"><path d="M 10.386719 13.757812 L 26.28125 16.007812 L 24.746094 26.847656 L 8.847656 24.59375 Z M 10.386719 13.757812 " clip-rule="nonzero"/></clipPath><clipPath id="97ea56a921"><path d="M 10.386719 13.757812 L 26.28125 16.007812 L 24.746094 26.847656 L 8.847656 24.59375 Z M 10.386719 13.757812 " clip-rule="nonzero"/></clipPath></defs><g clip-path="url(#606ec54938)"><g clip-path="url(#c34b0473c6)"><g clip-path="url(#df9a3ca86b)"><path fill="#ed0404" d="M 28.421875 10.761719 L 24.101562 10.152344 L 24.539062 7.058594 C 24.554688 6.945312 24.859375 5.050781 23.75 3.484375 C 22.976562 2.5 21.78125 1.835938 20.175781 1.609375 C 18.574219 1.382812 17.242188 1.652344 16.21875 2.457031 C 14.71875 3.648438 14.453125 5.515625 14.46875 5.667969 L 14.03125 8.761719 L 9.707031 8.148438 L 5.003906 30.867188 L 15.8125 32.398438 L 26.625 33.929688 Z M 14.410156 8.777344 L 14.851562 5.644531 C 14.882812 5.421875 15.160156 3.75 16.476562 2.757812 C 17.378906 2.050781 18.632812 1.773438 20.125 1.984375 C 21.613281 2.195312 22.75 2.773438 23.410156 3.742188 C 24.398438 5.097656 24.203125 6.742188 24.171875 6.96875 L 23.726562 10.097656 L 19.066406 9.4375 C 19.066406 9.4375 14.410156 8.777344 14.410156 8.777344 Z M 14.410156 8.777344 " fill-opacity="1" fill-rule="nonzero"/></g></g></g><g clip-path="url(#e784457b88)"><g clip-path="url(#e4815bd247)"><g clip-path="url(#97ea56a921)"><path fill="#ffffff" d="M 9.007812 23.5 C 9.011719 23.464844 9.027344 23.4375 9.050781 23.414062 L 11.316406 21.359375 C 11.339844 21.339844 11.367188 21.328125 11.394531 21.324219 C 11.335938 21.207031 11.308594 21.070312 11.328125 20.925781 L 12.214844 14.679688 C 12.265625 14.320312 12.597656 14.070312 12.957031 14.121094 L 23.644531 15.636719 C 24.003906 15.6875 24.253906 16.019531 24.203125 16.378906 L 23.316406 22.625 C 23.296875 22.765625 23.234375 22.890625 23.140625 22.988281 C 23.167969 23 23.191406 23.019531 23.207031 23.042969 L 24.8125 25.648438 C 24.832031 25.675781 24.839844 25.707031 24.832031 25.742188 L 24.78125 26.097656 C 24.738281 26.417969 24.441406 26.640625 24.121094 26.597656 L 9.453125 24.515625 C 9.132812 24.472656 8.910156 24.175781 8.957031 23.855469 Z M 14.1875 24.09375 L 19.691406 24.871094 L 19.429688 24.375 L 14.578125 23.6875 Z M 11.886719 21.667969 L 11.453125 21.609375 L 9.457031 23.421875 L 13.847656 24.042969 L 14.425781 23.445312 C 14.457031 23.410156 14.503906 23.394531 14.546875 23.402344 L 19.539062 24.109375 C 19.582031 24.117188 19.621094 24.144531 19.640625 24.183594 L 20.03125 24.921875 L 24.421875 25.542969 L 23.007812 23.246094 Z M 22.613281 22.910156 C 22.820312 22.9375 23.011719 22.792969 23.042969 22.585938 L 23.929688 16.339844 C 23.957031 16.132812 23.8125 15.9375 23.605469 15.910156 L 12.917969 14.394531 C 12.710938 14.367188 12.515625 14.511719 12.488281 14.71875 L 11.601562 20.964844 C 11.574219 21.171875 11.71875 21.363281 11.925781 21.394531 Z M 23.613281 16.738281 L 22.851562 22.117188 C 22.804688 22.433594 22.511719 22.65625 22.191406 22.613281 L 12.414062 21.226562 C 12.09375 21.179688 11.871094 20.886719 11.917969 20.566406 L 12.679688 15.1875 C 12.726562 14.867188 13.019531 14.648438 13.339844 14.691406 L 23.117188 16.078125 C 23.4375 16.121094 23.660156 16.417969 23.613281 16.738281 Z M 23.339844 16.699219 C 23.363281 16.53125 23.246094 16.375 23.078125 16.351562 L 13.300781 14.964844 C 13.132812 14.941406 12.976562 15.058594 12.953125 15.226562 L 12.191406 20.605469 C 12.167969 20.773438 12.285156 20.929688 12.453125 20.953125 L 22.230469 22.335938 C 22.398438 22.363281 22.554688 22.246094 22.578125 22.078125 Z M 24.539062 25.839844 L 9.261719 23.675781 L 9.230469 23.894531 C 9.207031 24.0625 9.324219 24.21875 9.492188 24.242188 L 24.160156 26.320312 C 24.328125 26.34375 24.484375 26.226562 24.507812 26.0625 Z M 24.539062 25.839844 " fill-opacity="1" fill-rule="evenodd"/></g></g></g></svg>